<svg width="375" height="134" viewBox="0 0 375 134" fill="none" xmlns="http://www.w3.org/2000/svg">
<path d="M305.237 39.667C305.237 40.1278 305.053 40.5424 304.685 40.911C304.408 41.1874 304.04 41.3256 303.579 41.3256H290.31C289.85 41.3256 289.619 41.5559 289.619 42.0167V71.3177C289.619 74.3584 290.218 76.6159 291.416 78.0902C292.706 79.5644 294.733 80.3016 297.498 80.3016H302.059C302.519 80.3016 302.888 80.4858 303.164 80.8544C303.533 81.1308 303.717 81.4994 303.717 81.9601V95.0903C303.717 96.1039 303.164 96.7028 302.059 96.8871C298.189 97.0714 295.424 97.1635 293.766 97.1635C286.118 97.1635 280.405 95.9196 276.627 93.4318C272.85 90.8518 270.915 86.0604 270.822 79.0576V42.0167C270.822 41.5559 270.592 41.3256 270.131 41.3256H262.253C261.793 41.3256 261.378 41.1874 261.009 40.911C260.733 40.5424 260.595 40.1278 260.595 39.667V27.3661C260.595 26.9054 260.733 26.5368 261.009 26.2604C261.378 25.8919 261.793 25.7076 262.253 25.7076H270.131C270.592 25.7076 270.822 25.4772 270.822 25.0165V8.5692C270.822 8.10849 270.961 7.73992 271.237 7.4635C271.606 7.09493 272.02 6.91064 272.481 6.91064H287.961C288.422 6.91064 288.79 7.09493 289.067 7.4635C289.435 7.73992 289.619 8.10849 289.619 8.5692V25.0165C289.619 25.4772 289.85 25.7076 290.31 25.7076H303.579C304.04 25.7076 304.408 25.8919 304.685 26.2604C305.053 26.5368 305.237 26.9054 305.237 27.3661V39.667Z" fill="#A1C3A2"/>
<path d="M307.985 96.7489C307.34 96.7489 306.88 96.5646 306.603 96.196C306.419 95.7353 306.511 95.2285 306.88 94.6757L329.132 61.6429C329.316 61.3664 329.316 61.09 329.132 60.8136L306.88 27.7808C306.695 27.4122 306.603 27.0897 306.603 26.8133C306.603 26.0761 307.064 25.7076 307.985 25.7076H325.262C326.091 25.7076 326.736 26.0761 327.197 26.8133L339.636 45.7484C340.005 46.3013 340.327 46.3013 340.604 45.7484L353.043 26.8133C353.504 26.0761 354.149 25.7076 354.978 25.7076H373.498C374.143 25.7076 374.558 25.9379 374.742 26.3986C374.926 26.7672 374.834 27.2279 374.466 27.7808L352.352 60.8136C352.26 61.09 352.26 61.3664 352.352 61.6429L374.466 94.6757C374.65 94.9521 374.742 95.2746 374.742 95.6432C374.742 96.3803 374.328 96.7489 373.498 96.7489H356.083C355.254 96.7489 354.609 96.3803 354.149 95.6432L341.709 76.708C341.433 76.1552 341.157 76.1552 340.88 76.708L328.441 95.6432C327.98 96.3803 327.335 96.7489 326.506 96.7489H307.985Z" fill="#A1C3A2"/>
<path d="M184.992 43.8134C186.743 48.6048 187.618 54.3176 187.618 60.9518C187.618 67.3096 186.835 72.8841 185.269 77.6755C183.149 83.9412 179.74 88.8707 175.041 92.4643C170.434 96.0578 164.951 97.8546 158.594 97.8546C151.867 97.8546 146.569 95.3207 142.699 90.2529C142.515 90.0686 142.331 90.0225 142.146 90.1147C141.962 90.1147 141.87 90.2529 141.87 90.5293V95.0903C141.87 95.551 141.686 95.9657 141.317 96.3342C141.041 96.6107 140.672 96.7489 140.211 96.7489H124.04C123.58 96.7489 123.165 96.6107 122.796 96.3342C122.52 95.9657 122.382 95.551 122.382 95.0903V1.65856C122.382 1.19785 122.52 0.829279 122.796 0.552852C123.165 0.184284 123.58 0 124.04 0H140.211C140.672 0 141.041 0.184284 141.317 0.552852C141.686 0.829279 141.87 1.19785 141.87 1.65856V31.2361C141.87 31.5125 141.962 31.6968 142.146 31.7889C142.331 31.8811 142.515 31.7889 142.699 31.5125C146.293 26.9054 151.406 24.6019 158.041 24.6019C164.767 24.6019 170.388 26.3526 174.903 29.8539C179.51 33.2632 182.873 37.9163 184.992 43.8134ZM164.537 75.1877C166.472 71.6863 167.439 67.0792 167.439 61.3664C167.439 55.0086 166.333 50.1251 164.122 46.7159C161.911 43.1224 158.64 41.3256 154.309 41.3256C150.255 41.3256 147.168 43.1224 145.049 46.7159C143.022 50.2173 142.008 55.0547 142.008 61.2282C142.008 67.4017 142.929 72.0549 144.772 75.1877C146.984 79.1498 150.209 81.1308 154.447 81.1308C158.962 81.1308 162.325 79.1498 164.537 75.1877Z" fill="#3F3D56"/>
<path d="M237.569 27.3661C237.569 26.9054 237.707 26.5368 237.984 26.2604C238.352 25.8918 238.767 25.7076 239.228 25.7076H255.399C255.859 25.7076 256.228 25.8918 256.504 26.2604C256.873 26.5368 257.057 26.9054 257.057 27.3661V90.3911C257.057 102.462 253.556 111.077 246.553 116.237C239.642 121.397 230.705 123.977 219.74 123.977C216.515 123.977 212.921 123.746 208.959 123.286C208.038 123.194 207.577 122.595 207.577 121.489L208.13 107.253C208.13 106.055 208.775 105.548 210.065 105.733C213.382 106.286 216.423 106.562 219.187 106.562C225.084 106.562 229.599 105.272 232.732 102.692C235.957 100.112 237.569 95.9657 237.569 90.2529C237.569 89.9764 237.477 89.8382 237.293 89.8382C237.108 89.7461 236.924 89.7922 236.74 89.9764C233.238 93.7543 228.125 95.6432 221.398 95.6432C215.409 95.6432 209.881 94.215 204.813 91.3586C199.837 88.41 196.29 83.7108 194.17 77.2609C192.788 73.0224 192.097 67.5399 192.097 60.8136C192.097 53.6265 192.926 47.7755 194.585 43.2606C196.52 37.6399 199.791 33.125 204.398 29.7157C209.005 26.3065 214.349 24.6019 220.431 24.6019C227.526 24.6019 232.962 26.7211 236.74 30.9596C236.924 31.1439 237.108 31.2361 237.293 31.2361C237.477 31.1439 237.569 30.9596 237.569 30.6832V27.3661ZM236.463 72.0088C237.201 69.2445 237.569 65.4667 237.569 60.6754C237.569 57.819 237.477 55.6076 237.293 54.0412C237.108 52.4747 236.786 51.0005 236.325 49.6183C235.496 47.1305 234.114 45.1495 232.179 43.6752C230.244 42.1088 227.848 41.3256 224.992 41.3256C222.228 41.3256 219.878 42.1088 217.943 43.6752C216.008 45.1495 214.58 47.1305 213.658 49.6183C212.368 52.3826 211.723 56.1143 211.723 60.8136C211.723 65.9735 212.276 69.6592 213.382 71.8706C214.211 74.3584 215.639 76.3855 217.666 77.9519C219.786 79.4262 222.274 80.1633 225.13 80.1633C228.079 80.1633 230.52 79.4262 232.455 77.9519C234.39 76.3855 235.726 74.4045 236.463 72.0088Z" fill="#3F3D56"/>
<path d="M275.358 112.929C275.358 112.727 275.458 112.627 275.657 112.627H276.647C276.846 112.627 276.946 112.727 276.946 112.929V133.457C276.946 133.658 276.846 133.759 276.647 133.759H275.657C275.458 133.759 275.358 133.658 275.358 133.457V131.977C275.358 131.917 275.338 131.887 275.298 131.887C275.278 131.867 275.248 131.877 275.208 131.917C274.788 132.581 274.229 133.094 273.529 133.457C272.83 133.819 272.04 134 271.161 134C269.802 134 268.653 133.638 267.714 132.913C266.775 132.189 266.135 131.213 265.796 129.985C265.656 129.522 265.566 129.009 265.526 128.445C265.486 127.862 265.466 127.107 265.466 126.181C265.466 125.276 265.486 124.531 265.526 123.947C265.566 123.364 265.646 122.84 265.766 122.378C266.065 121.13 266.685 120.144 267.624 119.419C268.583 118.674 269.762 118.302 271.161 118.302C272.04 118.302 272.83 118.483 273.529 118.846C274.229 119.208 274.788 119.721 275.208 120.385C275.228 120.446 275.258 120.476 275.298 120.476C275.338 120.456 275.358 120.415 275.358 120.355V112.929ZM274.968 129.743C275.108 129.361 275.198 128.928 275.238 128.445C275.298 127.962 275.328 127.208 275.328 126.181C275.328 125.115 275.298 124.34 275.238 123.857C275.178 123.354 275.078 122.901 274.938 122.498C274.718 121.673 274.288 121.009 273.649 120.506C273.03 119.983 272.26 119.721 271.341 119.721C270.402 119.721 269.592 119.983 268.913 120.506C268.234 121.009 267.774 121.663 267.534 122.468C267.354 122.85 267.224 123.293 267.144 123.796C267.084 124.279 267.054 125.064 267.054 126.151C267.054 127.198 267.084 127.962 267.144 128.445C267.204 128.908 267.304 129.341 267.444 129.743C267.644 130.589 268.094 131.273 268.793 131.796C269.492 132.32 270.332 132.581 271.311 132.581C272.25 132.581 273.03 132.32 273.649 131.796C274.288 131.273 274.728 130.589 274.968 129.743Z" fill="#3F3D56"/>
<path d="M286.449 132.581C287.388 132.581 288.187 132.37 288.847 131.947C289.526 131.504 290.056 130.901 290.436 130.136C290.535 129.955 290.665 129.904 290.825 129.985L291.605 130.377C291.784 130.478 291.834 130.609 291.754 130.77C291.315 131.756 290.615 132.541 289.656 133.125C288.717 133.708 287.608 134 286.329 134C284.93 134 283.741 133.658 282.762 132.974C281.783 132.289 281.113 131.354 280.754 130.166C280.594 129.663 280.484 129.099 280.424 128.476C280.364 127.852 280.334 127.067 280.334 126.121C280.334 125.135 280.344 124.39 280.364 123.887C280.404 123.384 280.474 122.921 280.574 122.498C280.893 121.23 281.543 120.214 282.522 119.449C283.521 118.685 284.74 118.302 286.179 118.302C287.818 118.302 289.127 118.735 290.106 119.6C291.085 120.446 291.694 121.623 291.934 123.132C291.994 123.515 292.034 123.967 292.054 124.491C292.074 124.994 292.084 125.628 292.084 126.393C292.084 126.594 291.984 126.694 291.784 126.694H282.013C281.933 126.694 281.893 126.735 281.893 126.815C281.893 128.103 281.943 128.959 282.043 129.381C282.262 130.367 282.752 131.152 283.511 131.736C284.291 132.299 285.27 132.581 286.449 132.581ZM282.102 122.861C282.003 123.243 281.933 124.028 281.893 125.215C281.893 125.296 281.933 125.336 282.013 125.336H290.376C290.456 125.336 290.495 125.296 290.495 125.215C290.495 124.209 290.446 123.454 290.346 122.951C290.126 121.985 289.646 121.21 288.907 120.627C288.167 120.023 287.258 119.721 286.179 119.721C285.1 119.721 284.201 120.013 283.481 120.596C282.762 121.16 282.302 121.915 282.102 122.861Z" fill="#3F3D56"/>
<path d="M299.773 133.909C298.694 133.909 297.735 133.738 296.895 133.396C296.076 133.034 295.437 132.551 294.977 131.947C294.517 131.343 294.288 130.679 294.288 129.955V129.562C294.288 129.361 294.387 129.26 294.587 129.26H295.517C295.716 129.26 295.816 129.361 295.816 129.562V129.894C295.816 130.639 296.186 131.283 296.925 131.826C297.665 132.35 298.604 132.611 299.743 132.611C300.862 132.611 301.771 132.34 302.471 131.796C303.17 131.253 303.52 130.579 303.52 129.774C303.52 129.21 303.34 128.747 302.98 128.385C302.621 128.023 302.191 127.751 301.691 127.57C301.212 127.369 300.482 127.117 299.503 126.815C298.384 126.473 297.485 126.151 296.805 125.849C296.126 125.547 295.547 125.125 295.067 124.581C294.607 124.018 294.377 123.313 294.377 122.468C294.377 121.24 294.857 120.264 295.816 119.54C296.795 118.795 298.074 118.423 299.653 118.423C300.712 118.423 301.641 118.604 302.441 118.966C303.26 119.308 303.89 119.781 304.329 120.385C304.789 120.989 305.019 121.673 305.019 122.438V122.528C305.019 122.73 304.919 122.83 304.719 122.83H303.79C303.59 122.83 303.49 122.73 303.49 122.528V122.438C303.49 121.673 303.13 121.039 302.411 120.536C301.711 120.013 300.782 119.751 299.623 119.751C298.504 119.751 297.605 119.993 296.925 120.476C296.246 120.939 295.906 121.573 295.906 122.378C295.906 123.142 296.216 123.716 296.835 124.098C297.475 124.481 298.464 124.873 299.803 125.276C300.962 125.618 301.881 125.94 302.561 126.242C303.26 126.544 303.86 126.976 304.359 127.54C304.859 128.083 305.109 128.798 305.109 129.683C305.109 130.951 304.619 131.977 303.64 132.762C302.681 133.527 301.392 133.909 299.773 133.909Z" fill="#3F3D56"/>
<path d="M327.373 133.396C327.413 133.436 327.433 133.497 327.433 133.577C327.433 133.618 327.413 133.658 327.373 133.698C327.333 133.738 327.273 133.759 327.193 133.759H326.024C325.904 133.759 325.784 133.698 325.664 133.577C325.324 133.195 324.925 132.712 324.465 132.128L323.746 131.283C323.686 131.223 323.626 131.223 323.566 131.283C322.607 132.249 321.648 132.943 320.688 133.366C319.749 133.789 318.68 134 317.481 134C315.742 134 314.354 133.587 313.314 132.762C312.275 131.937 311.756 130.76 311.756 129.23C311.756 127.842 312.155 126.644 312.955 125.638C313.754 124.632 314.883 123.605 316.342 122.559C316.402 122.518 316.402 122.468 316.342 122.408C315.143 120.898 314.344 119.781 313.944 119.057C313.564 118.312 313.374 117.568 313.374 116.823C313.374 115.495 313.804 114.428 314.663 113.623C315.543 112.798 316.702 112.385 318.14 112.385C319.579 112.385 320.758 112.788 321.677 113.593C322.597 114.398 323.056 115.454 323.056 116.763C323.056 117.97 322.677 119.027 321.917 119.932C321.178 120.818 320.109 121.774 318.71 122.8C318.65 122.84 318.65 122.891 318.71 122.951L319.25 123.615C319.709 124.179 320.608 125.255 321.947 126.845L323.596 128.868C323.656 128.928 323.716 128.928 323.776 128.868C324.595 127.842 325.265 126.966 325.784 126.242C325.904 126.081 326.044 126.05 326.204 126.151L326.923 126.574C327.103 126.694 327.133 126.835 327.013 126.996C326.114 128.264 325.344 129.271 324.705 130.015V130.076C324.705 130.156 324.755 130.247 324.855 130.347C325.934 131.716 326.773 132.732 327.373 133.396ZM318.2 113.895C317.221 113.895 316.432 114.166 315.832 114.71C315.253 115.233 314.963 115.968 314.963 116.913C314.963 117.437 315.123 118 315.443 118.604C315.782 119.208 316.492 120.194 317.571 121.562C317.631 121.623 317.691 121.633 317.751 121.593C318.97 120.747 319.889 119.962 320.508 119.238C321.148 118.493 321.468 117.668 321.468 116.763C321.468 115.897 321.158 115.203 320.538 114.68C319.939 114.156 319.16 113.895 318.2 113.895ZM317.451 132.581C318.45 132.581 319.349 132.39 320.149 132.008C320.948 131.625 321.777 131.001 322.637 130.136C322.697 130.076 322.697 130.015 322.637 129.955L320.838 127.811L320.239 127.087L317.481 123.796C317.461 123.736 317.411 123.726 317.331 123.766C316.052 124.692 315.063 125.567 314.364 126.393C313.684 127.198 313.344 128.123 313.344 129.17C313.344 130.257 313.704 131.102 314.424 131.706C315.163 132.289 316.172 132.581 317.451 132.581Z" fill="#3F3D56"/>
<path d="M344.778 112.929C344.778 112.727 344.878 112.627 345.078 112.627H346.067C346.267 112.627 346.367 112.727 346.367 112.929V133.457C346.367 133.658 346.267 133.759 346.067 133.759H345.078C344.878 133.759 344.778 133.658 344.778 133.457V131.977C344.778 131.917 344.758 131.887 344.718 131.887C344.698 131.867 344.668 131.877 344.628 131.917C344.208 132.581 343.649 133.094 342.949 133.457C342.25 133.819 341.461 134 340.581 134C339.223 134 338.074 133.638 337.134 132.913C336.195 132.189 335.556 131.213 335.216 129.985C335.076 129.522 334.986 129.009 334.946 128.445C334.906 127.862 334.886 127.107 334.886 126.181C334.886 125.276 334.906 124.531 334.946 123.947C334.986 123.364 335.066 122.84 335.186 122.378C335.486 121.13 336.105 120.144 337.044 119.419C338.004 118.674 339.183 118.302 340.581 118.302C341.461 118.302 342.25 118.483 342.949 118.846C343.649 119.208 344.208 119.721 344.628 120.385C344.648 120.446 344.678 120.476 344.718 120.476C344.758 120.456 344.778 120.415 344.778 120.355V112.929ZM344.388 129.743C344.528 129.361 344.618 128.928 344.658 128.445C344.718 127.962 344.748 127.208 344.748 126.181C344.748 125.115 344.718 124.34 344.658 123.857C344.598 123.354 344.498 122.901 344.358 122.498C344.139 121.673 343.709 121.009 343.069 120.506C342.45 119.983 341.681 119.721 340.761 119.721C339.822 119.721 339.013 119.983 338.333 120.506C337.654 121.009 337.194 121.663 336.954 122.468C336.775 122.85 336.645 123.293 336.565 123.796C336.505 124.279 336.475 125.064 336.475 126.151C336.475 127.198 336.505 127.962 336.565 128.445C336.625 128.908 336.725 129.341 336.865 129.743C337.064 130.589 337.514 131.273 338.213 131.796C338.913 132.32 339.752 132.581 340.731 132.581C341.671 132.581 342.45 132.32 343.069 131.796C343.709 131.273 344.148 130.589 344.388 129.743Z" fill="#3F3D56"/>
<path d="M355.869 132.581C356.808 132.581 357.608 132.37 358.267 131.947C358.947 131.504 359.476 130.901 359.856 130.136C359.956 129.955 360.086 129.904 360.246 129.985L361.025 130.377C361.205 130.478 361.255 130.609 361.175 130.77C360.735 131.756 360.036 132.541 359.077 133.125C358.137 133.708 357.028 134 355.749 134C354.35 134 353.161 133.658 352.182 132.974C351.203 132.289 350.534 131.354 350.174 130.166C350.014 129.663 349.904 129.099 349.844 128.476C349.784 127.852 349.754 127.067 349.754 126.121C349.754 125.135 349.764 124.39 349.784 123.887C349.824 123.384 349.894 122.921 349.994 122.498C350.314 121.23 350.963 120.214 351.942 119.449C352.942 118.685 354.161 118.302 355.599 118.302C357.238 118.302 358.547 118.735 359.526 119.6C360.505 120.446 361.115 121.623 361.355 123.132C361.415 123.515 361.455 123.967 361.475 124.491C361.495 124.994 361.505 125.628 361.505 126.393C361.505 126.594 361.405 126.694 361.205 126.694H351.433C351.353 126.694 351.313 126.735 351.313 126.815C351.313 128.103 351.363 128.959 351.463 129.381C351.683 130.367 352.172 131.152 352.932 131.736C353.711 132.299 354.69 132.581 355.869 132.581ZM351.523 122.861C351.423 123.243 351.353 124.028 351.313 125.215C351.313 125.296 351.353 125.336 351.433 125.336H359.796C359.876 125.336 359.916 125.296 359.916 125.215C359.916 124.209 359.866 123.454 359.766 122.951C359.546 121.985 359.067 121.21 358.327 120.627C357.588 120.023 356.679 119.721 355.599 119.721C354.52 119.721 353.621 120.013 352.902 120.596C352.182 121.16 351.723 121.915 351.523 122.861Z" fill="#3F3D56"/>
<path d="M368.293 133.759C368.114 133.759 367.994 133.678 367.934 133.517L362.958 118.876L362.928 118.755C362.928 118.614 363.018 118.544 363.198 118.544H364.337C364.517 118.544 364.636 118.624 364.696 118.785L368.773 131.283C368.793 131.323 368.823 131.343 368.863 131.343C368.903 131.343 368.933 131.323 368.953 131.283L373.029 118.785C373.089 118.624 373.209 118.544 373.389 118.544L374.498 118.574C374.718 118.574 374.798 118.685 374.738 118.906L369.792 133.517C369.732 133.678 369.612 133.759 369.432 133.759H368.293Z" fill="#3F3D56"/>
<path d="M0 24.3697H24.1263V0.243408H0V24.3697Z" fill="#A1C3A2"/>
<path d="M36.1895 96.7486H60.3158V72.6223H36.1895V96.7486Z" fill="#A1C3A2"/>
<path d="M0 96.7486H24.1263V72.6223H0V96.7486Z" fill="#A1C3A2"/>
<path d="M0 60.5592H24.1263V36.4329H0V60.5592Z" fill="#3F3D56"/>
<path d="M36.1895 60.5592H60.3158V36.4329H36.1895V60.5592Z" fill="#3F3D56"/>
<path d="M72.3789 0.243408V24.3697H96.5052V0.243408H72.3789Z" fill="#A1C3A2"/>
<path d="M36.1895 24.3697H60.3158V0.243408H36.1895V24.3697Z" fill="#A1C3A2"/>
<path d="M72.3789 60.5592H96.5052V36.4329H72.3789V60.5592Z" fill="#3F3D56"/>
<path d="M72.3789 96.7486H96.5052V72.6223H72.3789V96.7486Z" fill="#A1C3A2"/>
</svg>
