<svg width="32" height="32" viewBox="0 0 32 32" fill="none" xmlns="http://www.w3.org/2000/svg">
<path d="M26.4997 1.99963C26.9629 1.98431 27.4248 2.06579 27.8551 2.23792C28.2852 2.40998 28.6749 2.66932 28.9997 2.99963C29.3302 3.3245 29.5902 3.71482 29.7624 4.14514C29.9344 4.57533 30.0149 5.03657 29.9997 5.49963V26.4996C29.9944 27.4279 29.6228 28.3168 28.9655 28.9723C28.3081 29.6278 27.4183 29.997 26.4899 29.9996H5.49966C5.03659 30.0149 4.57536 29.9344 4.14517 29.7623C3.71485 29.5902 3.32453 29.3302 2.99966 28.9996C2.67179 28.6771 2.41384 28.2904 2.24185 27.8639C2.09132 27.4905 2.00934 27.0935 1.99966 26.692V5.49963C1.9844 5.03654 2.06586 4.57535 2.23795 4.14514C2.41007 3.71483 2.66912 3.32449 2.99966 2.99963C3.32453 2.66909 3.71486 2.41004 4.14517 2.23792C4.57538 2.06583 5.03657 1.98437 5.49966 1.99963H26.4997ZM13.8044 13.3541V24.7731H18.196V13.3541H13.8044ZM15.9997 7.22717C15.319 7.22724 14.7263 7.43598 14.2213 7.85315C13.7237 8.26299 13.4744 8.82988 13.4743 9.55432C13.4743 10.2789 13.7237 10.85 14.2213 11.2672C14.7263 11.6771 15.319 11.8824 15.9997 11.8824C16.6804 11.8824 17.2705 11.6771 17.7682 11.2672C18.273 10.85 18.5251 10.2788 18.5251 9.55432C18.525 8.83004 18.2729 8.26297 17.7682 7.85315C17.2705 7.43591 16.6804 7.22717 15.9997 7.22717Z" fill="#E7E7E7"/>
<circle cx="29.455" cy="2.54497" r="2.54497" fill="#FF3232"/>
</svg>
